<svg xmlns="http://www.w3.org/2000/svg" viewBox="0 0 500 500"><g id="freepik--background-complete--inject-15"><rect y="382.4" width="500" height="0.25" style="fill:#ebebeb"></rect><rect x="52.46" y="391.92" width="25.54" height="0.25" style="fill:#ebebeb"></rect><rect x="154.06" y="389.21" width="109.94" height="0.25" style="fill:#ebebeb"></rect><rect x="97.33" y="395.18" width="72.67" height="0.25" style="fill:#ebebeb"></rect><rect x="353.66" y="399.53" width="96.25" height="0.25" style="fill:#ebebeb"></rect><rect x="338.42" y="399.53" width="6.33" height="0.25" style="fill:#ebebeb"></rect><rect x="301.22" y="395.31" width="69.67" height="0.25" style="fill:#ebebeb"></rect><path d="M237,337.8H43.91a5.71,5.71,0,0,1-5.7-5.71V60.66A5.71,5.71,0,0,1,43.91,55H237a5.71,5.71,0,0,1,5.71,5.71V332.09A5.71,5.71,0,0,1,237,337.8ZM43.91,55.2a5.46,5.46,0,0,0-5.45,5.46V332.09a5.46,5.46,0,0,0,5.45,5.46H237a5.47,5.47,0,0,0,5.46-5.46V60.66A5.47,5.47,0,0,0,237,55.2Z" style="fill:#ebebeb"></path><path d="M453.31,337.8H260.21a5.72,5.72,0,0,1-5.71-5.71V60.66A5.72,5.72,0,0,1,260.21,55h193.1A5.71,5.71,0,0,1,459,60.66V332.09A5.71,5.71,0,0,1,453.31,337.8ZM260.21,55.2a5.47,5.47,0,0,0-5.46,5.46V332.09a5.47,5.47,0,0,0,5.46,5.46h193.1a5.47,5.47,0,0,0,5.46-5.46V60.66a5.47,5.47,0,0,0-5.46-5.46Z" style="fill:#ebebeb"></path><rect x="422.33" y="263.67" width="30.17" height="118.73" transform="translate(874.83 646.07) rotate(180)" style="fill:#f0f0f0"></rect><rect x="420.33" y="259" width="32.17" height="4.67" transform="translate(872.83 522.67) rotate(180)" style="fill:#e6e6e6"></rect><rect x="79.24" y="96.19" width="156.08" height="286.21" style="fill:#e6e6e6"></rect><rect x="62.56" y="96.19" width="156.08" height="276.63" style="fill:#f5f5f5"></rect><polygon points="160.71 114.33 129.09 114.33 84.2 372.82 115.82 372.82 160.71 114.33" style="fill:#fafafa"></polygon><polygon points="203.33 114.33 171.71 114.33 126.82 372.82 158.45 372.82 203.33 114.33" style="fill:#fafafa"></polygon><rect x="62.56" y="96.19" width="156.08" height="24.59" style="fill:#e0e0e0"></rect><rect x="152.14" y="211.22" width="5.25" height="41.19" style="fill:#e0e0e0"></rect><rect x="139.59" y="96.19" width="2.01" height="276.63" style="fill:#e6e6e6"></rect><rect x="123.8" y="211.22" width="5.25" height="41.19" style="fill:#e0e0e0"></rect><rect x="224" y="259" width="196.33" height="4.67" style="fill:#f0f0f0"></rect><rect x="226.5" y="263.67" width="195.83" height="118.73" style="fill:#f5f5f5"></rect><rect x="323.94" y="263.67" width="0.94" height="118.73" transform="translate(648.83 646.07) rotate(180)" style="fill:#e6e6e6"></rect><path d="M354.33,224.22h-11a1.45,1.45,0,0,1-1.44-1.44h0a1.45,1.45,0,0,1,1.44-1.45h11a1.45,1.45,0,0,1,1.45,1.45h0A1.45,1.45,0,0,1,354.33,224.22Z" style="fill:#e0e0e0"></path><rect x="346.78" y="213.67" width="48.67" height="45.33" rx="1.83" style="fill:#ebebeb"></rect><path d="M356.59,209.94l-12,2.43a1.72,1.72,0,0,0,.34,3.41h52.32a1.72,1.72,0,0,0,.34-3.41l-12-2.43A73.18,73.18,0,0,0,356.59,209.94Z" style="fill:#f5f5f5"></path><path d="M399,224.22H388a1.45,1.45,0,0,1-1.44-1.44h0a1.45,1.45,0,0,1,1.44-1.45h11a1.45,1.45,0,0,1,1.44,1.45h0A1.45,1.45,0,0,1,399,224.22Z" style="fill:#e0e0e0"></path><path d="M303.72,232.47h-8.39a1.1,1.1,0,0,1-1.1-1.1h0a1.1,1.1,0,0,1,1.1-1.1h8.39a1.1,1.1,0,0,1,1.1,1.1h0A1.1,1.1,0,0,1,303.72,232.47Z" style="fill:#e0e0e0"></path><rect x="297.96" y="224.42" width="37.12" height="34.58" rx="1.4" style="fill:#ebebeb"></rect><path d="M305.44,221.58l-9.14,1.85a1.31,1.31,0,0,0,.26,2.6h39.91a1.31,1.31,0,0,0,.26-2.6l-9.14-1.85A55.81,55.81,0,0,0,305.44,221.58Z" style="fill:#f5f5f5"></path><path d="M337.79,232.47H329.4a1.1,1.1,0,0,1-1.1-1.1h0a1.1,1.1,0,0,1,1.1-1.1h8.39a1.1,1.1,0,0,1,1.1,1.1h0A1.1,1.1,0,0,1,337.79,232.47Z" style="fill:#e0e0e0"></path><rect x="282.52" y="142.28" width="121.81" height="7.33" style="fill:#fafafa"></rect><polygon points="404.33 100.78 356.76 100.78 282.52 142.28 404.33 142.28 404.33 100.78" style="fill:#f5f5f5"></polygon><rect x="404.33" y="142.28" width="40.17" height="7.33" transform="translate(848.83 291.89) rotate(180)" style="fill:#ebebeb"></rect><polygon points="404.33 100.78 417.22 100.78 444.5 142.28 404.33 142.28 404.33 100.78" style="fill:#ebebeb"></polygon><path d="M385.88,38.72h18.45a0,0,0,0,1,0,0v62.06a0,0,0,0,1,0,0H356.76a0,0,0,0,1,0,0V67.84A29.12,29.12,0,0,1,385.88,38.72Z" style="fill:#fafafa"></path><rect x="404.33" y="38.72" width="12.89" height="62.06" transform="translate(821.56 139.5) rotate(180)" style="fill:#ebebeb"></rect></g><g id="freepik--Shadow--inject-15"><ellipse id="freepik--path--inject-15" cx="250" cy="416.24" rx="193.89" ry="11.32" style="fill:#f5f5f5"></ellipse></g><g id="freepik--Character--inject-15"><polygon points="279.5 407.83 271.36 407.9 270.12 389.06 278.26 388.98 279.5 407.83" style="fill:#ffb573"></polygon><path d="M270.92,407l9.15-.08a.58.58,0,0,1,.61.55l.51,7.23a1.44,1.44,0,0,1-1.41,1.46c-3.19,0-4.71-.2-8.73-.16-2.48,0-9.86.38-13.28.41s-3.35-3.34-1.9-3.66c6.48-1.44,11.37-3.4,13.66-5.23A2.32,2.32,0,0,1,270.92,407Z" style="fill:#263238"></path><polygon points="278.27 388.99 270.12 389.07 270.76 398.78 278.91 398.7 278.27 388.99" style="opacity:0.2"></polygon><path d="M274.5,201.24s-10.1,71.63-12.18,94.89c-2.28,25.46,4.89,100.66,4.89,100.66l14.89-.8s-.89-69.21,3.68-94.08c5-27,17.81-100.67,17.81-100.67Z" style="fill:#263238"></path><path d="M291.33,236.6c-8.67,13.67-5.22,36.1-2.16,46.48,2.77-15.46,6.14-34.58,8.92-50.45C296.89,229.73,296,229.31,291.33,236.6Z" style="opacity:0.30000000000000004"></path><polygon points="282.53 396.15 266.59 397.01 264.88 390.98 283.21 391.15 282.53 396.15" style="fill:#53A547"></polygon><path d="M268.05,408.41a10.59,10.59,0,0,0,2.17-.31.19.19,0,0,0,.14-.15.19.19,0,0,0-.08-.19c-.26-.18-2.58-1.73-3.57-1.33a.72.72,0,0,0-.44.54,1,1,0,0,0,.25,1A2.17,2.17,0,0,0,268.05,408.41Zm1.64-.58c-1.45.3-2.52.27-2.91-.11a.67.67,0,0,1-.14-.67.34.34,0,0,1,.21-.27C267.38,406.56,268.74,407.24,269.69,407.83Z" style="fill:#53A547"></path><path d="M270.17,408.1a.15.15,0,0,0,.09,0,.18.18,0,0,0,.1-.15c0-.1.17-2.44-.66-3.23a1,1,0,0,0-.81-.26.74.74,0,0,0-.68.59c-.18.89,1.05,2.57,1.87,3.05A.15.15,0,0,0,270.17,408.1ZM269,404.81a.58.58,0,0,1,.41.17c.5.46.57,1.81.56,2.58-.71-.59-1.53-1.88-1.42-2.46,0-.11.09-.24.36-.28Z" style="fill:#53A547"></path><path d="M284.84,140.36a155.17,155.17,0,0,1-10,15.9c-1.84,2.55-3.77,5.08-5.91,7.53a44.52,44.52,0,0,1-7.55,7.16c-.37.28-.84.57-1.27.84s-.79.44-1.19.67c-.77.43-1.55.83-2.3,1.17-1.53.72-3,1.3-4.52,1.89-3,1.16-6,2-8.94,2.95a160,160,0,0,1-18,4.05l-1.64-5.89c5.52-2.3,11.1-4.61,16.51-7,2.71-1.18,5.39-2.41,7.95-3.69,1.26-.64,2.53-1.3,3.68-2,.61-.33,1.15-.67,1.67-1,.24-.17.57-.35.75-.5s.37-.27.59-.47a40.58,40.58,0,0,0,5.18-5.71c1.7-2.21,3.37-4.57,5-7,3.2-4.82,6.33-9.93,9.24-14.89Z" style="fill:#ffb573"></path><path d="M270.73,136.2c-3.74,3.94-6.79,14-16.5,24.51l4.65,13.79c12.51-6.25,28.28-32.16,28.34-37.6C287.31,128.78,279.39,127.07,270.73,136.2Z" style="fill:#53A547"></path><path d="M270.73,136.2c-3.74,3.94-6.79,14-16.5,24.51l4.65,13.79c12.51-6.25,28.28-32.16,28.34-37.6C287.31,128.78,279.39,127.07,270.73,136.2Z" style="fill:#fff;opacity:0.7000000000000001"></path><path d="M280.62,142.77c-6.37,5.7-9.65,14.82-12.16,24.1a105.4,105.4,0,0,0,13.84-18.62Z" style="fill:#53A547;opacity:0.30000000000000004"></path><polygon points="311.77 407.91 303.63 407.91 302.57 389.06 310.71 389.06 311.77 407.91" style="fill:#ffb573"></polygon><path d="M303.2,407h9.15a.58.58,0,0,1,.6.56l.45,7.23a1.45,1.45,0,0,1-1.43,1.45c-3.18-.06-4.7-.24-8.73-.24-2.47,0-8.68.25-12.09.25s-3.32-3.37-1.88-3.68c6.5-1.37,10.23-3.26,12.53-5.07A2.29,2.29,0,0,1,303.2,407Z" style="fill:#263238"></path><polygon points="310.72 389.06 302.57 389.06 303.12 398.78 311.26 398.78 310.72 389.06" style="opacity:0.2"></polygon><path d="M290.4,200.83s-.78,62.21.54,85.52c1.45,25.53,8.69,110.09,8.69,110.09h14.91s-.44-82.5.45-107.77c1-27.43,2-87.84,2-87.84Z" style="fill:#263238"></path><polygon points="315.14 396.44 299.03 396.44 298.13 390.78 315.92 391.66 315.14 396.44" style="fill:#53A547"></polygon><path d="M300.32,408.39a10.65,10.65,0,0,0,2.17-.29.19.19,0,0,0,.14-.15.19.19,0,0,0-.08-.19c-.26-.18-2.56-1.76-3.56-1.37a.72.72,0,0,0-.44.54,1.07,1.07,0,0,0,.24,1A2.2,2.2,0,0,0,300.32,408.39Zm1.65-.57c-1.46.29-2.53.25-2.91-.13a.7.7,0,0,1-.14-.68.35.35,0,0,1,.21-.27C299.67,406.53,301,407.22,302,407.82Z" style="fill:#53A547"></path><path d="M302.44,408.1l.09,0a.18.18,0,0,0,.1-.15c0-.1.19-2.44-.63-3.23a.92.92,0,0,0-.8-.27.73.73,0,0,0-.69.57c-.19.89,1,2.59,1.84,3.08Zm-1.11-3.3a.58.58,0,0,1,.41.17,4.15,4.15,0,0,1,.53,2.58c-.7-.59-1.51-1.88-1.39-2.47,0-.11.09-.24.36-.27Z" style="fill:#53A547"></path><path d="M224.91,176.07l-9.36.65,3.5,8.31s8.68-2,8.6-4.8Z" style="fill:#ffb573"></path><path d="M212.66,184.12l2.3,2a2.15,2.15,0,0,0,2.87,0l1.22-1.09-3.5-8.31-3.23,4.53A2.16,2.16,0,0,0,212.66,184.12Z" style="fill:#ffb573"></path><path d="M212.14,173.4l-1.7,1.95,30,39.77h2Zm1,4.6-1.63-2.17.9-1,1.55,2.13Z" style="fill:#263238"></path><path d="M268.39,230.67l50.1,3c.31-3.89-.67-43.06,0-59.17.46-10.82,1.24-29.1,3.95-41.42v0a2.57,2.57,0,0,0-2.06-3.09c-.78-.13-1.7-.28-2.71-.42-2.63-.39-5.92-.78-9.15-.94a163.17,163.17,0,0,0-18.51,0c-2.84.27-5.62.74-7.84,1.17-.92.18-1.71.36-2.37.51a3.54,3.54,0,0,0-2.62,2.66C275.06,142.57,266.69,183.7,268.39,230.67Z" style="fill:#53A547"></path><path d="M268.39,230.67l50.1,3c.31-3.89-.67-43.06,0-59.17.46-10.82,1.24-29.1,3.95-41.42v0a2.57,2.57,0,0,0-2.06-3.09c-.78-.13-1.7-.28-2.71-.42-2.63-.39-5.92-.78-9.15-.94a163.17,163.17,0,0,0-18.51,0c-2.84.27-5.62.74-7.84,1.17-.92.18-1.71.36-2.37.51a3.54,3.54,0,0,0-2.62,2.66C275.06,142.57,266.69,183.7,268.39,230.67Z" style="fill:#fff;opacity:0.7000000000000001"></path><path d="M325.56,135.66c1,1.49,1.78,2.84,2.6,4.28s1.59,2.86,2.35,4.3c1.49,2.91,2.89,5.88,4.13,8.94a93.24,93.24,0,0,1,3.31,9.45c.43,1.65.86,3.29,1.17,5l.13.63.07.32,0,.19.06.38a9.87,9.87,0,0,1,0,2.71,13.23,13.23,0,0,1-1.17,3.8,26.16,26.16,0,0,1-3.22,5c-1.13,1.39-2.29,2.66-3.48,3.86A91.47,91.47,0,0,1,324.2,191a142.79,142.79,0,0,1-15.75,11.05l-3.62-4.92c4.52-4.16,9-8.48,13.27-12.82,2.1-2.2,4.17-4.39,6-6.66.92-1.12,1.79-2.24,2.54-3.35a15.56,15.56,0,0,0,1.66-3.06,1.66,1.66,0,0,0,.16-.7.78.78,0,0,0,0,.38V171s0-.06,0-.09l-.08-.26-.15-.5c-.36-1.35-.84-2.7-1.3-4.05-1-2.72-2.15-5.42-3.38-8.11s-2.59-5.36-4-8q-1-2-2.15-3.95l-2.2-3.8Z" style="fill:#ffb573"></path><path d="M314.33,147.64c-1.12,6.54,3,16.62,4.47,20,.2-4.12.46-8.72.83-13.4Z" style="fill:#53A547;opacity:0.30000000000000004"></path><path d="M319.57,129.84c-8.29-.61-11,11.28-8.88,17.81,1.76,5.47,8.56,11,14.72,22.64l15.4-2.14C336.23,148.81,327.93,130.45,319.57,129.84Z" style="fill:#53A547"></path><path d="M319.57,129.84c-8.29-.61-11,11.28-8.88,17.81,1.76,5.47,8.56,11,14.72,22.64l15.4-2.14C336.23,148.81,327.93,130.45,319.57,129.84Z" style="fill:#fff;opacity:0.7000000000000001"></path><path d="M304,198l-4.65,9.58,10.17-1.41s2-7.12-1.76-7.85l-1.26-.93A1.68,1.68,0,0,0,304,198Z" style="fill:#ffb573"></path><path d="M227.47,217.55h-4.75a1.67,1.67,0,0,1-1.67-1.67h0a1.68,1.68,0,0,1,1.67-1.67h4.75a1.69,1.69,0,0,1,1.67,1.67h0A1.68,1.68,0,0,1,227.47,217.55Z" style="fill:#53A547"></path><path d="M258.1,213.94l-4,2.55a1.67,1.67,0,0,1-2.31-.51h0a1.68,1.68,0,0,1,.51-2.3l4-2.56a1.68,1.68,0,0,1,2.3.51h0A1.68,1.68,0,0,1,258.1,213.94Z" style="fill:#53A547"></path><path d="M234.44,216.76c-9,0-11.16-4-11.25-4.19l.24-.13c0,.05,2.21,4.05,11,4.05h1c5.2-.17,8.14-2.4,10.74-4.36,2.35-1.78,4.39-3.31,7.55-3a6,6,0,0,1,4.47,2,4.69,4.69,0,0,1,.83,3.47l-.26-.05a4.48,4.48,0,0,0-.78-3.26,5.74,5.74,0,0,0-4.28-1.94c-3.06-.26-5.06,1.25-7.37,3-2.63,2-5.6,4.24-10.89,4.41Z" style="fill:#53A547"></path><path d="M217.44,218.73s-1.85-4.65,1.95-6.23c2-.84,3.74.39,5.76,1.82s4.56,3.24,7.86,2.78c9-1.24,9.23-8.81,9.23-8.89h.26c0,.08-.26,7.88-9.45,9.15-3.41.47-5.88-1.28-8.06-2.82-2-1.38-3.63-2.58-5.5-1.8-3.55,1.48-1.88,5.71-1.81,5.89Z" style="fill:#53A547"></path><path d="M250.56,210.62,247.93,212a1,1,0,0,1-1.41-.43h0a1,1,0,0,1,.43-1.41l2.63-1.4a1,1,0,0,1,1.41.44h0A1,1,0,0,1,250.56,210.62Z" style="fill:#53A547"></path><path d="M268,214.42l-4.47-1.54a1.67,1.67,0,0,1-1-2.11h0a1.68,1.68,0,0,1,2.12-1l4.46,1.54a1.67,1.67,0,0,1,1,2.11h0A1.66,1.66,0,0,1,268,214.42Z" style="fill:#53A547"></path><path d="M272.89,218.14l-51.16,4.55a4.56,4.56,0,0,1-3.29-1l-6.31-5.13,69.12-6.16-5.3,6.17A4.63,4.63,0,0,1,272.89,218.14Z" style="fill:#263238"></path><polygon points="275.36 212.23 315.5 208.49 318.36 210.77 314.17 211.69 313.05 210.54 275.21 213.81 275.36 212.23" style="fill:#263238"></polygon><path d="M302.72,212.57l4.66.67A2.13,2.13,0,0,0,309.8,211l-.28-4.83-10.17,1.41,1.38,3.41A2.52,2.52,0,0,0,302.72,212.57Z" style="fill:#ffb573"></path><path d="M302.29,135.22a7.2,7.2,0,0,1-4.86-1.49,3.53,3.53,0,0,1-1.2-2.87.19.19,0,0,1,.22-.2.21.21,0,0,1,.2.23,3,3,0,0,0,1.06,2.52c1.43,1.29,4,1.7,7.13,1.16a7.36,7.36,0,0,0,6.17-6.25.2.2,0,0,1,.23-.18.21.21,0,0,1,.19.23,7.91,7.91,0,0,1-6.52,6.62A16.5,16.5,0,0,1,302.29,135.22Z" style="fill:#263238"></path><path d="M281.51,228a.21.21,0,0,1-.21-.21c-.12-23.35,1.95-73.63,4.55-86.92a.26.26,0,0,1,.08-.13c4.37-3.25,8.52-6.67,8.56-6.7a.21.21,0,0,1,.3,0,.21.21,0,0,1,0,.29s-4.16,3.43-8.51,6.67c-2.59,13.39-4.65,63.47-4.53,86.75a.22.22,0,0,1-.21.22Z" style="fill:#263238"></path><path d="M290.77,146.84c-.15,1.18-.82,2.07-1.5,2s-1.13-1.11-1-2.29.81-2.07,1.5-2S290.91,145.66,290.77,146.84Z" style="fill:#263238"></path><path d="M297.92,146.84c-.14,1.18-.81,2.07-1.5,2s-1.13-1.11-1-2.29.82-2.07,1.5-2S298.06,145.66,297.92,146.84Z" style="fill:#263238"></path><path d="M289.5,164.18c-.15,1.18-.82,2.07-1.5,2s-1.13-1.11-1-2.29.81-2.07,1.5-2S289.64,163,289.5,164.18Z" style="fill:#263238"></path><path d="M296.65,164.18c-.14,1.18-.81,2.07-1.5,2s-1.13-1.11-1-2.29.82-2.07,1.5-2S296.79,163,296.65,164.18Z" style="fill:#263238"></path><path d="M288,183.31c-.14,1.18-.81,2.07-1.5,2s-1.13-1.1-1-2.28.82-2.07,1.5-2S288.15,182.13,288,183.31Z" style="fill:#263238"></path><path d="M295.17,183.31c-.15,1.18-.82,2.07-1.51,2s-1.12-1.1-1-2.28.81-2.07,1.5-2S295.31,182.13,295.17,183.31Z" style="fill:#263238"></path><path d="M287,204.63c-.14,1.18-.81,2.07-1.5,2s-1.12-1.11-1-2.29.81-2.07,1.5-2S287.15,203.45,287,204.63Z" style="fill:#263238"></path><path d="M294.16,204.63c-.14,1.18-.81,2.07-1.5,2s-1.13-1.11-1-2.29.81-2.07,1.5-2S294.3,203.45,294.16,204.63Z" style="fill:#263238"></path><path d="M291.5,134.12a4.06,4.06,0,0,1-3.09-1.38c-1.55-1.74,1-4.4,1.08-4.51a.2.2,0,0,1,.29,0,.21.21,0,0,1,0,.3s-2.36,2.49-1.06,3.94a3.73,3.73,0,0,0,3.66,1.15,5.39,5.39,0,0,0,3.83-2.81.21.21,0,0,1,.27-.12.2.2,0,0,1,.13.26,5.87,5.87,0,0,1-4.15,3.08A4.7,4.7,0,0,1,291.5,134.12Z" style="fill:#263238"></path><path d="M290.9,128.55c5.38-1.28,6.33-4.6,6-8.26a21.92,21.92,0,0,0-.43-2.72l6.74-5.6,4.95-4.11c-1.37,6-2.92,16.82,1.11,20.8,0,0-4.17,3.53-12.8,3.13C289.44,131.46,290.9,128.55,290.9,128.55Z" style="fill:#ffb573"></path><path d="M296.44,117.57a21.92,21.92,0,0,1,.43,2.72c2.51-.51,5.87-3.19,6.22-5.76a11.48,11.48,0,0,0,.09-2.56Z" style="opacity:0.2"></path><path d="M310.17,99.28c-1.72,7.92-2.32,12.63-7,16.24a10.54,10.54,0,0,1-17-7.58c-.61-7.37,2.31-19.08,10.64-21.32A10.65,10.65,0,0,1,310.17,99.28Z" style="fill:#ffb573"></path><path d="M290.93,106.74a3,3,0,0,1,2-.83,4.66,4.66,0,0,1,2.06.52c.63.3,1.19.74,1.79.68s.73-1,.21-1.27l.12-.23a1,1,0,0,1,.5,1,1.14,1.14,0,0,1-.24.55,1,1,0,0,1-.54.27,3.93,3.93,0,0,1-2-.66,4.19,4.19,0,0,0-1.88-.42,2.49,2.49,0,0,0-1.67.75Z" style="fill:#263238"></path><path d="M289.3,107a1.57,1.57,0,0,0-1-.8,1.8,1.8,0,0,0-1.22.42,1.35,1.35,0,0,1-.8.3.9.9,0,0,1-.72-.5,1.5,1.5,0,0,1-.16-.8.83.83,0,0,1,.13-.42.47.47,0,0,1,.42-.23v.25c-.16,0-.25.19-.26.41a1.14,1.14,0,0,0,.16.63.54.54,0,0,0,.45.31,1,1,0,0,0,.56-.25,2.15,2.15,0,0,1,1.51-.56,2,2,0,0,1,1.33,1Z" style="fill:#263238"></path><path d="M304.75,92.32c-4.29,1.45-12.27.45-15.42.82a.54.54,0,0,1-.54-.79c1.76-3.51,3.28-5.65,5-6.77,1.54-1,10.52-3.51,16.84,2.13s1.43,17,1.43,17l-5.37.12a1.22,1.22,0,0,1-1.11-1.81c1-1.79,2.23-4.44,2-6A9.86,9.86,0,0,1,304.75,92.32Z" style="fill:#263238"></path><path d="M290,90.69c7.33,1.1,18.25,6.92,23,13.19.24.31.68,0,.82-.58l3.83-15.78a.81.81,0,0,0-.12-.76c-5.76-5.51-11.5-9.4-20-10.8-.17,0-.38.12-.52.38l-7.11,13.2C289.55,90,289.63,90.64,290,90.69Z" style="fill:#53A547"></path><path d="M290,90.69c7.33,1.1,18.25,6.92,23,13.19.24.31.68,0,.82-.58l3.83-15.78a.81.81,0,0,0-.12-.76c-5.76-5.51-11.5-9.4-20-10.8-.17,0-.38.12-.52.38l-7.11,13.2C289.55,90,289.63,90.64,290,90.69Z" style="fill:#fff;opacity:0.7000000000000001"></path><path d="M317.46,86.75c-5.76-5.5-11.5-9.39-20-10.79-.18,0-.37.12-.52.38l-4.81,8.92c5.11,2.29,15.35,2.41,19.34,2.44,1.92,2.65,3.69,4,5.06,4.17l1.06-4.35A.83.83,0,0,0,317.46,86.75Z" style="fill:#53A547;opacity:0.2"></path><path d="M312.15,87.12c-5.56-.49-22.5-2.12-23.58-7.5-1.29-6.39,3.72-9.86,9.64-9.87,9.39,0,20.88,6.81,23.1,14.45C323.7,92.47,317.89,95.39,312.15,87.12Z" style="fill:#53A547"></path><path d="M312.15,87.12c-5.56-.49-22.5-2.12-23.58-7.5-1.29-6.39,3.72-9.86,9.64-9.87,9.39,0,20.88,6.81,23.1,14.45C323.7,92.47,317.89,95.39,312.15,87.12Z" style="fill:#fff;opacity:0.7000000000000001"></path><path d="M312,107.54a8.71,8.71,0,0,1-5,3c-2.49.43-3.05-1.89-1.79-4.12,1.15-2,3.82-4.66,6.05-4.07S313.62,105.6,312,107.54Z" style="fill:#ffb573"></path><path d="M297.93,100.78c-.1.65-.53,1.13-.95,1.08s-.69-.62-.59-1.27.52-1.13.95-1.08S298,100.13,297.93,100.78Z" style="fill:#263238"></path><path d="M290.19,99.9c-.1.65-.52,1.14-.95,1.08s-.69-.61-.59-1.26.53-1.14,1-1.09S290.29,99.25,290.19,99.9Z" style="fill:#263238"></path><path d="M292.24,99.49a24.5,24.5,0,0,1-4,5.18c1,1.21,3,1,3,1Z" style="fill:#ed893e"></path><path d="M294.7,110a5.64,5.64,0,0,0,4.1-1.69.19.19,0,0,0-.29-.25,5.39,5.39,0,0,1-4.53,1.51.19.19,0,0,0-.21.17.18.18,0,0,0,.17.21A4.93,4.93,0,0,0,294.7,110Z" style="fill:#263238"></path><path d="M300,98.47a.42.42,0,0,0,.19,0,.39.39,0,0,0,.22-.5,3.69,3.69,0,0,0-2.62-2.3.38.38,0,0,0-.45.31.4.4,0,0,0,.32.45,2.92,2.92,0,0,1,2,1.83A.39.39,0,0,0,300,98.47Z" style="fill:#263238"></path><path d="M287.51,96.13a.37.37,0,0,0,.36-.07,3.23,3.23,0,0,1,2.75-.74.38.38,0,0,0,.47-.26.39.39,0,0,0-.26-.48h0a4,4,0,0,0-3.46.89.39.39,0,0,0-.05.54A.39.39,0,0,0,287.51,96.13Z" style="fill:#263238"></path><path d="M323.62,168.29a13.33,13.33,0,0,0,2.45,5.29c1.25,1.37,4.91-1.82,9.31-.31s5.49,1.1,6-1.83.27-5.21-.42-5.81S323,166.18,323.62,168.29Z" style="fill:#53A547"></path><path d="M254.92,158.36c-1.23,1.71-2.85,1.92-3.4,3.51-.74,2.13,3.11,4.63,3.46,9.26s1.16,5.48,4.07,4.83,4.9-1.81,5.17-2.68S257.83,154.3,254.92,158.36Z" style="fill:#53A547"></path></g><g id="freepik--Cabinet--inject-15"><rect x="221.03" y="230.09" width="85.61" height="2.55" style="fill:#263238"></rect><rect x="141.16" y="231.01" width="229.48" height="5.11" style="fill:#53A547"></rect><rect x="348.03" y="231.01" width="22.61" height="5.11" style="fill:#263238;opacity:0.30000000000000004"></rect><rect x="143.35" y="236.13" width="225.1" height="180.11" style="fill:#53A547"></rect><rect x="143.35" y="236.13" width="225.1" height="180.11" style="fill:#fff;opacity:0.8"></rect><rect x="350.43" y="236.13" width="18.02" height="180.11" style="fill:#53A547;opacity:0.30000000000000004"></rect><g style="opacity:0.30000000000000004"><rect x="193.67" y="236.13" width="0.79" height="180.11" transform="translate(388.14 652.36) rotate(180)" style="fill:#53A547"></rect><rect x="194.46" y="236.13" width="0.79" height="180.11" transform="translate(389.72 652.36) rotate(180)" style="fill:#fff"></rect><polygon points="350.43 400.8 350.43 401.59 195.25 401.59 194.46 400.8 350.43 400.8" style="fill:#53A547"></polygon><rect x="272.45" y="324.39" width="0.79" height="155.18" transform="translate(-129.14 674.82) rotate(-90)" style="fill:#fff"></rect></g><polygon points="368.45 236.13 143.35 236.13 143.35 238.55 368.45 240.98 368.45 236.13" style="fill:#53A547;opacity:0.30000000000000004"></polygon><path d="M147.82,160.3h0a3.51,3.51,0,0,1,4.93,0l24.88,24.89a3.49,3.49,0,0,1,0,4.93h0c-1.35,1.35-2.27,0-3.63-1.31l-20.94-20.94-5.24-2.64A3.49,3.49,0,0,1,147.82,160.3Z" style="fill:#263238"></path><circle cx="156.21" cy="167.39" r="0.77" style="fill:#fff"></circle><path d="M166.23,176.32a.77.77,0,1,1-1.09,0A.77.77,0,0,1,166.23,176.32Z" style="fill:#fff"></path><path d="M199.85,208.35l-19,22.07A70.3,70.3,0,0,1,147.33,197l22.07-19.05a1.52,1.52,0,0,1,2.07,0l28.42,28.42A1.51,1.51,0,0,1,199.85,208.35Z" style="fill:#53A547"></path><path d="M199.85,208.35l-19,22.07A70.3,70.3,0,0,1,147.33,197l22.07-19.05a1.52,1.52,0,0,1,2.07,0l28.42,28.42A1.51,1.51,0,0,1,199.85,208.35Z" style="fill:#fff;opacity:0.8"></path><path d="M154.49,190.78,147.34,197a70.33,70.33,0,0,0,33.46,33.46l6.17-7.15A70.22,70.22,0,0,1,154.49,190.78Z" style="fill:#53A547;opacity:0.4"></path><g style="opacity:0.6000000000000001"><path d="M173.25,179.65,161.1,216.51a66.36,66.36,0,0,0,6.76,6l12-36.26Z" style="fill:#fff"></path><path d="M183.55,189.94l-11.67,35.39c1.17.78,2.37,1.54,3.61,2.26l11.34-34.37Z" style="fill:#fff"></path></g><path d="M208.77,226.92H153.69A4.09,4.09,0,0,0,149.6,231h63.25A4.09,4.09,0,0,0,208.77,226.92Z" style="fill:#53A547"></path><path d="M208.77,226.92H153.69A4.09,4.09,0,0,0,149.6,231h63.25A4.09,4.09,0,0,0,208.77,226.92Z" style="fill:#fff;opacity:0.5"></path><path d="M190.38,226.92H153.69A4.09,4.09,0,0,0,149.6,231h44.86A4.09,4.09,0,0,0,190.38,226.92Z" style="fill:#fff;opacity:0.5"></path><path d="M357.15,196.39l-1.68-1.66a4.25,4.25,0,0,1-1.28-3V180.17a.4.4,0,1,0,0-.79h-4.32a.4.4,0,0,0,0,.79v11.52a4.24,4.24,0,0,1-1.27,3l-1.68,1.66a4.26,4.26,0,0,0-1.27,3v31a.61.61,0,0,0,.61.62h11.57a.61.61,0,0,0,.61-.62v-31A4.3,4.3,0,0,0,357.15,196.39Z" style="fill:#53A547;opacity:0.4"></path><path d="M346.68,217.23V229a1,1,0,0,0,1,1h8.69a1,1,0,0,0,1-1V216.69a1,1,0,0,0-.78-1,7.6,7.6,0,0,0-4.57.22,7.28,7.28,0,0,1-4.16.3A1,1,0,0,0,346.68,217.23Z" style="fill:#53A547;opacity:0.4"></path><rect x="348.06" y="204.58" width="7.93" height="13.57" rx="0.83" style="fill:#fff"></rect><path d="M333.49,218c.13-.91-1.35-1.55-2.35-1.5a5.54,5.54,0,0,1-2.35-.36,8.5,8.5,0,0,0,2.72,1.21A8.64,8.64,0,0,1,333.49,218Z" style="fill:#263238"></path><path d="M333.49,218c.51-.77-.56-2-1.48-2.36a5.33,5.33,0,0,1-2-1.34,8.31,8.31,0,0,0,1.94,2.27A8.59,8.59,0,0,1,333.49,218Z" style="fill:#263238"></path><path d="M333.59,218c-.21-.9,1.22-1.66,2.21-1.68a5.55,5.55,0,0,0,2.32-.56,8.28,8.28,0,0,1-2.61,1.43A8.66,8.66,0,0,0,333.59,218Z" style="fill:#263238"></path><path d="M333.59,218c-.39-.83.84-1.88,1.81-2.11a5.43,5.43,0,0,0,2.14-1,8.5,8.5,0,0,1-2.25,2A8.37,8.37,0,0,0,333.59,218Z" style="fill:#263238"></path><path d="M342.08,222.05c-.11-6.28-5.68-5.64-8.65-4.31-2.81-1.62-9.75-.79-9.41,5.26.22,3.93,2.42,7.18,6.07,8,.78.18,2.5-.46,3.34-.46s1.91.52,2.55.44C339.88,230.46,342.16,226.15,342.08,222.05Z" style="fill:#53A547"></path></g></svg>